<svg width="17" height="24" viewBox="0 0 17 24" fill="none" xmlns="http://www.w3.org/2000/svg">
<path d="M16.7768 4.42308H14.8996V19.4359H10.7514V17.6282H10.6988C9.75367 19.047 8.36654 19.7564 6.53745 19.7564C4.85714 19.7564 3.50502 19.1795 2.48108 18.0256C1.45714 16.8632 0.945174 15.2436 0.945174 13.1667C0.945174 10.9957 1.50965 9.25641 2.63861 7.94872C3.76757 6.64103 5.24659 5.98718 7.07568 5.98718C8.80849 5.98718 10.0162 6.59402 10.6988 7.80769H10.7514V4.42308H6.41931V1.79487H10.7514V0H14.8996V1.79487H16.7768V4.42308ZM10.8301 13.0513V12.0641C10.8301 11.2094 10.5763 10.5 10.0687 9.9359C9.56113 9.37179 8.90039 9.08974 8.08649 9.08974C7.16757 9.08974 6.44994 9.44444 5.93359 10.1538C5.41725 10.8547 5.15907 11.8205 5.15907 13.0513C5.15907 14.2051 5.40849 15.094 5.90734 15.7179C6.40618 16.3419 7.09755 16.6538 7.98147 16.6538C8.82162 16.6538 9.50425 16.3248 10.0293 15.6667C10.5632 15.0085 10.8301 14.1368 10.8301 13.0513Z" fill="white" fill-opacity="0.5"/>
<path d="M0 22.4744H17V24H0V22.4744Z" fill="white" fill-opacity="0.5"/>
</svg>
