<svg width="49" height="48" viewBox="0 0 49 48" fill="none" xmlns="http://www.w3.org/2000/svg">
<path d="M40.1632 27.7895C40.1167 27.7895 40.0789 27.7518 40.0789 27.7053V24C40.0789 15.396 33.104 8.42105 24.5 8.42105C15.896 8.42105 8.92105 15.396 8.92105 24C8.92105 32.604 15.896 39.5789 24.5 39.5789H28.2053C28.2518 39.5789 28.2895 39.6167 28.2895 39.6632V47.9158C28.2895 47.9623 28.2518 48 28.2053 48H24.5C11.2452 48 0.5 37.2548 0.5 24C0.5 10.7452 11.2452 0 24.5 0C37.7548 0 48.5 10.7452 48.5 24V27.7053C48.5 27.7518 48.4623 27.7895 48.4158 27.7895H40.1632Z" fill="url(#paint0_linear_368_14668)"/>
<path d="M29.9737 29.4737H48.5V48H29.9737V29.4737Z" fill="url(#paint1_linear_368_14668)"/>
<defs>
<linearGradient id="paint0_linear_368_14668" x1="48.5" y1="48" x2="7.5" y2="2" gradientUnits="userSpaceOnUse">
<stop stop-color="#0EDFA2" stop-opacity="0.64"/>
<stop offset="0.255" stop-color="#30DDC5" stop-opacity="0.727816"/>
<stop offset="0.4" stop-color="#69D9FF"/>
<stop offset="0.45" stop-color="#69D9FF"/>
<stop offset="0.5" stop-color="#69D9FF"/>
<stop offset="0.548028" stop-color="#69D9FF"/>
<stop offset="0.6" stop-color="#69D9FF"/>
<stop offset="1" stop-color="#27C1F5" stop-opacity="0.72"/>
</linearGradient>
<linearGradient id="paint1_linear_368_14668" x1="48.5" y1="48" x2="7.5" y2="2" gradientUnits="userSpaceOnUse">
<stop stop-color="#0EDFA2" stop-opacity="0.64"/>
<stop offset="0.255" stop-color="#30DDC5" stop-opacity="0.727816"/>
<stop offset="0.4" stop-color="#69D9FF"/>
<stop offset="0.45" stop-color="#69D9FF"/>
<stop offset="0.5" stop-color="#69D9FF"/>
<stop offset="0.548028" stop-color="#69D9FF"/>
<stop offset="0.6" stop-color="#69D9FF"/>
<stop offset="1" stop-color="#27C1F5" stop-opacity="0.72"/>
</linearGradient>
</defs>
</svg>
