<svg width="192" height="192" viewBox="0 0 192 192" fill="none" xmlns="http://www.w3.org/2000/svg">
<path d="M158.653 111.158C158.467 111.158 158.316 111.007 158.316 110.821V96C158.316 61.5839 130.416 33.6842 96 33.6842C61.5839 33.6842 33.6842 61.5839 33.6842 96C33.6842 130.416 61.5839 158.316 96 158.316H110.821C111.007 158.316 111.158 158.467 111.158 158.653V191.663C111.158 191.849 111.007 192 110.821 192H96C42.9807 192 0 149.019 0 96C0 42.9807 42.9807 0 96 0C149.019 0 192 42.9807 192 96V110.821C192 111.007 191.849 111.158 191.663 111.158H158.653Z" fill="url(#paint0_linear_368_14670)"/>
<path d="M117.895 117.895H192V192H117.895V117.895Z" fill="url(#paint1_linear_368_14670)"/>
<defs>
<linearGradient id="paint0_linear_368_14670" x1="192" y1="192" x2="28" y2="7.99999" gradientUnits="userSpaceOnUse">
<stop stop-color="#0EDFA2" stop-opacity="0.64"/>
<stop offset="0.255" stop-color="#30DDC5" stop-opacity="0.727816"/>
<stop offset="0.4" stop-color="#69D9FF"/>
<stop offset="0.45" stop-color="#69D9FF"/>
<stop offset="0.5" stop-color="#69D9FF"/>
<stop offset="0.548028" stop-color="#69D9FF"/>
<stop offset="0.6" stop-color="#69D9FF"/>
<stop offset="1" stop-color="#27C1F5" stop-opacity="0.72"/>
</linearGradient>
<linearGradient id="paint1_linear_368_14670" x1="192" y1="192" x2="28" y2="7.99999" gradientUnits="userSpaceOnUse">
<stop stop-color="#0EDFA2" stop-opacity="0.64"/>
<stop offset="0.255" stop-color="#30DDC5" stop-opacity="0.727816"/>
<stop offset="0.4" stop-color="#69D9FF"/>
<stop offset="0.45" stop-color="#69D9FF"/>
<stop offset="0.5" stop-color="#69D9FF"/>
<stop offset="0.548028" stop-color="#69D9FF"/>
<stop offset="0.6" stop-color="#69D9FF"/>
<stop offset="1" stop-color="#27C1F5" stop-opacity="0.72"/>
</linearGradient>
</defs>
</svg>
