<svg width="115" height="20" viewBox="0 0 115 20" fill="none" xmlns="http://www.w3.org/2000/svg">
<path fill-rule="evenodd" clip-rule="evenodd" d="M0 0V17L3 20H16V11.5L4.5 0H0ZM1.99992 2.00002H3.99992L13.9999 12V18H3.49992L1.99992 16.5V2.00002Z" fill="#121314"/>
<path d="M20 20V10L10 0H7.5L18 10.5V20H20Z" fill="#121314"/>
<path d="M0 10.75V9.24998H13.25L14.75 10.75H0Z" fill="#121314"/>
<path d="M30.544 3.8H35.088L36.352 5.72V13.672L35.088 15H30.544L29.248 13.08V5.128L30.544 3.8ZM30.528 12.92L31.152 13.848H34.576L35.056 13.32V5.88L34.448 4.952H31.024L30.528 5.48V12.92ZM38.8418 3.032H41.2418L42.5378 3.8V12.936L43.1458 13.848H45.9298L45.9138 15H42.5378L41.2418 13.096V4.184H38.8418V3.032ZM49.0915 6.2H51.3475L52.6275 8.12V13.848H55.5235V15H48.4515V13.848H51.3475V8.28L50.7395 7.368H49.0915V6.2ZM51.1875 4.104H52.7875V2.504H51.1875V4.104ZM63.8373 6.488H65.1333V11.384L61.6453 15H60.5253L58.0453 11.32V6.488H59.3253V11.144L61.1493 13.864L63.8373 11.064V6.488ZM68.903 6.504H73.383L74.711 8.408L72.071 11.128H68.903V12.92L69.527 13.848H72.919L73.815 12.968L74.519 13.848L73.399 15H68.919L67.623 13.08V7.832L68.903 6.504ZM68.903 8.168V9.976H71.591L73.207 8.28L72.791 7.656H69.415L68.903 8.168ZM77.1528 6.504H77.8568L79.3768 7.416L80.2568 6.504H83.5528L84.3848 7.72L83.4248 8.376L82.9448 7.656H80.7528L80.0488 8.408V13.848H82.3048V15H77.1528V13.848H78.7688V8.568L78.1448 7.656H77.1528V6.504ZM89.2425 15V12.76H91.4825V15H89.2425ZM102.212 3.8H103.508V15H102.212V10.728L98.3243 4.952H97.7003V15H96.4203V3.8H98.9323L102.212 8.648V3.8ZM108.334 14.056L107.422 14.936V16.216L108.062 17.176H110.446L111.79 15.816V14.536L111.486 14.056H108.334ZM107.422 8.072V10.536H110.494L111.79 9.736V8.2L111.182 7.32H108.11L107.422 8.072ZM110.526 11.72H108.062L107.47 12.328L107.806 12.872H112.11L113.086 14.392V16.088L110.926 18.344H107.47L106.126 16.344V14.664L107.038 13.752L105.998 12.2L106.83 11.368L106.126 10.936V7.72L107.63 6.152H110.51L111.79 6.936V6.152H113.086V10.152L110.526 11.72Z" fill="#121314"/>
</svg>
